<svg xmlns="http://www.w3.org/2000/svg" width="72" height="32" viewBox="90 45 200 75">
  <g fill="#ffffff" stroke-width="0">
    <path d="M193.3 49.4c6.2 6.1 8.2 11.8 8.2 22.7 0 9-.2 10-3.5 16.5-2.9 5.6-4.6 7.6-9.3 10.8l-5.7 4V114h20.3l-.8-14c-.5-9.4-.3-14 .3-14s5.9 6.3 11.9 13.9l10.8 14h5.7l5.6.1 10.9-14c5.9-7.6 11.1-13.9 11.6-14 .4 0 .7 6.3.7 14v14h19V46h-12.6l-17 21.7c-9.3 11.9-17.4 21.8-17.9 22-.6.2-8.7-9.6-18-21.7-16-20.6-17.2-21.9-20.3-22h-3.3zM97 56v9h19V47H97z"/>
    <path d="M125 80.4V114h19V98h15.3c13.1 0 15.8-.3 19.7-2.1 10-4.5 14.4-11.5 14.4-23.4.1-8.9-1.8-13.7-7.1-18.6-6.6-6.2-7.5-6.4-35.5-6.7l-25.8-.3zm48-13.5c1.5 2.8 1.2 9.4-.4 11.7-1.3 1.7-2.9 1.9-15 2.2l-13.6.4V65h14c12.7 0 14 .2 15 1.9M97 97.5V114h19V81H97z"/>
  </g>
</svg>
